<mxfile host="app.diagrams.net" modified="2023-11-24T05:24:26.362Z" agent="Mozilla/5.0 (Windows NT 10.0; Win64; x64) AppleWebKit/537.36 (KHTML, like Gecko) Chrome/119.0.0.0 Safari/537.36" etag="7-rYupMxTijhBYgt61n8" version="22.1.3" type="google" pages="2">
  <diagram name="Page-1" id="WurmMggbMrOg-Wg_6uBZ">
    <mxGraphModel grid="0" page="1" gridSize="10" guides="1" tooltips="1" connect="1" arrows="1" fold="1" pageScale="1" pageWidth="4800" pageHeight="3600" background="#FFFFFF" math="0" shadow="0">
      <root>
        <mxCell id="0" />
        <mxCell id="1" parent="0" />
        <mxCell id="4rSlKy-zUTEEd2vc2ofl-23" style="edgeStyle=orthogonalEdgeStyle;rounded=0;orthogonalLoop=1;jettySize=auto;html=1;exitX=1;exitY=0.5;exitDx=0;exitDy=0;exitPerimeter=0;" edge="1" parent="1" source="sOELaAdXGhDxpeGKIX_B-2">
          <mxGeometry relative="1" as="geometry">
            <mxPoint x="200" y="455" as="targetPoint" />
          </mxGeometry>
        </mxCell>
        <mxCell id="sOELaAdXGhDxpeGKIX_B-2" value="User submits newly created ticket" style="strokeWidth=2;html=1;shape=mxgraph.flowchart.document2;whiteSpace=wrap;size=0.25;" vertex="1" parent="1">
          <mxGeometry x="41" y="425" width="120" height="60" as="geometry" />
        </mxCell>
        <mxCell id="sOELaAdXGhDxpeGKIX_B-7" value="Ticket Information Retreiver&amp;nbsp; (Expert)" style="rounded=1;whiteSpace=wrap;html=1;absoluteArcSize=1;arcSize=14;strokeWidth=2;" vertex="1" parent="1">
          <mxGeometry x="856" y="535" width="100" height="60" as="geometry" />
        </mxCell>
        <mxCell id="1-DJlMxkK741mBJsUIG5-114" style="edgeStyle=orthogonalEdgeStyle;rounded=0;orthogonalLoop=1;jettySize=auto;html=1;exitX=1;exitY=0.5;exitDx=0;exitDy=0;exitPerimeter=0;entryX=0.5;entryY=1;entryDx=0;entryDy=0;" edge="1" parent="1" source="sOELaAdXGhDxpeGKIX_B-8" target="sOELaAdXGhDxpeGKIX_B-7">
          <mxGeometry relative="1" as="geometry" />
        </mxCell>
        <mxCell id="sOELaAdXGhDxpeGKIX_B-8" value="&lt;br&gt;Tickets DB" style="strokeWidth=2;html=1;shape=mxgraph.flowchart.database;whiteSpace=wrap;" vertex="1" parent="1">
          <mxGeometry x="526.75" y="605" width="60" height="60" as="geometry" />
        </mxCell>
        <mxCell id="1-DJlMxkK741mBJsUIG5-41" style="edgeStyle=orthogonalEdgeStyle;rounded=0;orthogonalLoop=1;jettySize=auto;html=1;exitX=0.25;exitY=0;exitDx=0;exitDy=0;entryX=0.5;entryY=1;entryDx=0;entryDy=0;" edge="1" parent="1" source="sOELaAdXGhDxpeGKIX_B-10" target="1-DJlMxkK741mBJsUIG5-18">
          <mxGeometry relative="1" as="geometry" />
        </mxCell>
        <mxCell id="1-DJlMxkK741mBJsUIG5-42" style="edgeStyle=orthogonalEdgeStyle;rounded=0;orthogonalLoop=1;jettySize=auto;html=1;exitX=0.75;exitY=0;exitDx=0;exitDy=0;entryX=0.5;entryY=1;entryDx=0;entryDy=0;" edge="1" parent="1" source="sOELaAdXGhDxpeGKIX_B-10" target="1-DJlMxkK741mBJsUIG5-21">
          <mxGeometry relative="1" as="geometry" />
        </mxCell>
        <mxCell id="sOELaAdXGhDxpeGKIX_B-10" value="Notification&lt;br&gt;Service" style="rounded=1;whiteSpace=wrap;html=1;absoluteArcSize=1;arcSize=14;strokeWidth=2;" vertex="1" parent="1">
          <mxGeometry x="1012" y="320" width="100" height="60" as="geometry" />
        </mxCell>
        <mxCell id="INxV5NP9dw3u0RVz2hmH-2" style="edgeStyle=orthogonalEdgeStyle;rounded=0;orthogonalLoop=1;jettySize=auto;html=1;exitX=0;exitY=0.5;exitDx=0;exitDy=0;" edge="1" parent="1" source="sOELaAdXGhDxpeGKIX_B-11">
          <mxGeometry relative="1" as="geometry">
            <mxPoint x="360" y="400" as="targetPoint" />
          </mxGeometry>
        </mxCell>
        <mxCell id="sOELaAdXGhDxpeGKIX_B-11" value="Ticket Management Service" style="rounded=1;whiteSpace=wrap;html=1;absoluteArcSize=1;arcSize=14;strokeWidth=2;" vertex="1" parent="1">
          <mxGeometry x="483.5" y="505" width="146.5" height="60" as="geometry" />
        </mxCell>
        <mxCell id="4rSlKy-zUTEEd2vc2ofl-24" style="edgeStyle=orthogonalEdgeStyle;rounded=0;orthogonalLoop=1;jettySize=auto;html=1;exitX=1;exitY=0.5;exitDx=0;exitDy=0;exitPerimeter=0;" edge="1" parent="1" source="sOELaAdXGhDxpeGKIX_B-12">
          <mxGeometry relative="1" as="geometry">
            <mxPoint x="200" y="285" as="targetPoint" />
          </mxGeometry>
        </mxCell>
        <mxCell id="sOELaAdXGhDxpeGKIX_B-12" value="Expert marks ticket as &quot;complete&quot;" style="strokeWidth=2;html=1;shape=mxgraph.flowchart.document2;whiteSpace=wrap;size=0.25;" vertex="1" parent="1">
          <mxGeometry x="40" y="255" width="120" height="60" as="geometry" />
        </mxCell>
        <mxCell id="1-DJlMxkK741mBJsUIG5-29" style="edgeStyle=orthogonalEdgeStyle;rounded=0;orthogonalLoop=1;jettySize=auto;html=1;" edge="1" parent="1">
          <mxGeometry relative="1" as="geometry">
            <mxPoint x="450" y="730" as="targetPoint" />
            <mxPoint x="400" y="730" as="sourcePoint" />
          </mxGeometry>
        </mxCell>
        <mxCell id="1-DJlMxkK741mBJsUIG5-84" style="edgeStyle=orthogonalEdgeStyle;rounded=0;orthogonalLoop=1;jettySize=auto;html=1;exitX=0.5;exitY=0;exitDx=0;exitDy=0;" edge="1" parent="1" source="UWmo7tcNuA-eIz2tXKw3-10">
          <mxGeometry relative="1" as="geometry">
            <mxPoint x="340" y="400" as="targetPoint" />
          </mxGeometry>
        </mxCell>
        <mxCell id="UWmo7tcNuA-eIz2tXKw3-10" value="Customer Management Service" style="rounded=1;whiteSpace=wrap;html=1;absoluteArcSize=1;arcSize=14;strokeWidth=2;" vertex="1" parent="1">
          <mxGeometry x="290" y="700" width="100" height="60" as="geometry" />
        </mxCell>
        <mxCell id="UWmo7tcNuA-eIz2tXKw3-11" value="&lt;br&gt;Customer DB" style="strokeWidth=2;html=1;shape=mxgraph.flowchart.database;whiteSpace=wrap;" vertex="1" parent="1">
          <mxGeometry x="310" y="790" width="60" height="60" as="geometry" />
        </mxCell>
        <mxCell id="UWmo7tcNuA-eIz2tXKw3-12" value="" style="group" connectable="0" vertex="1" parent="1">
          <mxGeometry x="335" y="760" width="10" height="30" as="geometry" />
        </mxCell>
        <mxCell id="UWmo7tcNuA-eIz2tXKw3-13" style="edgeStyle=orthogonalEdgeStyle;rounded=0;orthogonalLoop=1;jettySize=auto;html=1;exitX=0;exitY=0.15;exitDx=0;exitDy=0;exitPerimeter=0;" edge="1" parent="UWmo7tcNuA-eIz2tXKw3-12">
          <mxGeometry relative="1" as="geometry">
            <mxPoint y="0.7500000000000415" as="targetPoint" />
            <mxPoint y="29.999999999999957" as="sourcePoint" />
          </mxGeometry>
        </mxCell>
        <mxCell id="UWmo7tcNuA-eIz2tXKw3-14" style="edgeStyle=orthogonalEdgeStyle;rounded=0;orthogonalLoop=1;jettySize=auto;html=1;exitX=0;exitY=0.15;exitDx=0;exitDy=0;exitPerimeter=0;" edge="1" parent="UWmo7tcNuA-eIz2tXKw3-12">
          <mxGeometry relative="1" as="geometry">
            <mxPoint x="10" y="29.999999999999996" as="targetPoint" />
            <mxPoint x="10" as="sourcePoint" />
          </mxGeometry>
        </mxCell>
        <mxCell id="UWmo7tcNuA-eIz2tXKw3-32" style="edgeStyle=orthogonalEdgeStyle;rounded=0;orthogonalLoop=1;jettySize=auto;html=1;exitX=0.5;exitY=0;exitDx=0;exitDy=0;strokeColor=#000000;" edge="1" parent="1" source="UWmo7tcNuA-eIz2tXKw3-29" target="sOELaAdXGhDxpeGKIX_B-10">
          <mxGeometry relative="1" as="geometry" />
        </mxCell>
        <mxCell id="UWmo7tcNuA-eIz2tXKw3-29" value="Customer Survey Service" style="rounded=1;whiteSpace=wrap;html=1;absoluteArcSize=1;arcSize=14;strokeWidth=2;" vertex="1" parent="1">
          <mxGeometry x="1012" y="425" width="100" height="60" as="geometry" />
        </mxCell>
        <mxCell id="UWmo7tcNuA-eIz2tXKw3-33" value="Assignment &amp;amp; Routing Service" style="rounded=1;whiteSpace=wrap;html=1;absoluteArcSize=1;arcSize=14;strokeWidth=2;" vertex="1" parent="1">
          <mxGeometry x="611.75" y="320" width="100" height="60" as="geometry" />
        </mxCell>
        <mxCell id="UWmo7tcNuA-eIz2tXKw3-34" value="&lt;br&gt;Experts DB" style="strokeWidth=2;html=1;shape=mxgraph.flowchart.database;whiteSpace=wrap;" vertex="1" parent="1">
          <mxGeometry x="631.75" y="220" width="60" height="60" as="geometry" />
        </mxCell>
        <mxCell id="4rSlKy-zUTEEd2vc2ofl-1" value="Expert Management Service" style="rounded=1;whiteSpace=wrap;html=1;absoluteArcSize=1;arcSize=14;strokeWidth=2;" vertex="1" parent="1">
          <mxGeometry x="611.75" y="120" width="100" height="60" as="geometry" />
        </mxCell>
        <mxCell id="4rSlKy-zUTEEd2vc2ofl-10" value="Send text to expert" style="text;html=1;align=center;verticalAlign=middle;resizable=0;points=[];autosize=1;strokeColor=none;fillColor=none;" vertex="1" parent="1">
          <mxGeometry x="896" y="365" width="120" height="30" as="geometry" />
        </mxCell>
        <mxCell id="4rSlKy-zUTEEd2vc2ofl-11" value="Send text/email to customer" style="text;html=1;align=center;verticalAlign=middle;resizable=0;points=[];autosize=1;strokeColor=none;fillColor=none;" vertex="1" parent="1">
          <mxGeometry x="842" y="325" width="170" height="30" as="geometry" />
        </mxCell>
        <mxCell id="4rSlKy-zUTEEd2vc2ofl-12" value="Send survey to customer" style="text;html=1;align=center;verticalAlign=middle;resizable=0;points=[];autosize=1;strokeColor=none;fillColor=none;" vertex="1" parent="1">
          <mxGeometry x="1056" y="390" width="160" height="30" as="geometry" />
        </mxCell>
        <mxCell id="HOSZesTvu6yCZXEizFdF-5" value="" style="endArrow=none;dashed=1;html=1;rounded=0;exitX=0.417;exitY=-0.017;exitDx=0;exitDy=0;exitPerimeter=0;entryX=0.5;entryY=0;entryDx=0;entryDy=0;" edge="1" parent="1" source="sOELaAdXGhDxpeGKIX_B-12" target="UWmo7tcNuA-eIz2tXKw3-51">
          <mxGeometry width="50" height="50" relative="1" as="geometry">
            <mxPoint x="270" y="350" as="sourcePoint" />
            <mxPoint x="320" y="300" as="targetPoint" />
            <Array as="points">
              <mxPoint x="90" y="40" />
              <mxPoint x="260" y="40" />
              <mxPoint x="550" y="40" />
              <mxPoint x="884" y="40" />
            </Array>
          </mxGeometry>
        </mxCell>
        <mxCell id="HOSZesTvu6yCZXEizFdF-8" value="" style="endArrow=none;dashed=1;html=1;rounded=0;exitX=0.488;exitY=0.905;exitDx=0;exitDy=0;exitPerimeter=0;entryX=0.005;entryY=0.327;entryDx=0;entryDy=0;entryPerimeter=0;" edge="1" parent="1" source="sOELaAdXGhDxpeGKIX_B-2" target="UWmo7tcNuA-eIz2tXKw3-10">
          <mxGeometry width="50" height="50" relative="1" as="geometry">
            <mxPoint x="272" y="550" as="sourcePoint" />
            <mxPoint x="320" y="650" as="targetPoint" />
            <Array as="points">
              <mxPoint x="100" y="660" />
              <mxPoint x="250" y="660" />
              <mxPoint x="250" y="720" />
            </Array>
          </mxGeometry>
        </mxCell>
        <mxCell id="1-DJlMxkK741mBJsUIG5-136" style="edgeStyle=orthogonalEdgeStyle;rounded=0;orthogonalLoop=1;jettySize=auto;html=1;" edge="1" parent="1">
          <mxGeometry relative="1" as="geometry">
            <mxPoint x="267.5" y="285" as="sourcePoint" />
            <mxPoint x="310" y="330" as="targetPoint" />
            <Array as="points">
              <mxPoint x="310" y="285" />
            </Array>
          </mxGeometry>
        </mxCell>
        <mxCell id="4rSlKy-zUTEEd2vc2ofl-27" value="" style="strokeWidth=2;html=1;shape=mxgraph.flowchart.direct_data;whiteSpace=wrap;rotation=-180;" vertex="1" parent="1">
          <mxGeometry x="209" y="280" width="55" height="10" as="geometry" />
        </mxCell>
        <mxCell id="1-DJlMxkK741mBJsUIG5-96" style="edgeStyle=orthogonalEdgeStyle;rounded=0;orthogonalLoop=1;jettySize=auto;html=1;" edge="1" parent="1">
          <mxGeometry relative="1" as="geometry">
            <mxPoint x="311" y="400" as="targetPoint" />
            <mxPoint x="270" y="455" as="sourcePoint" />
            <Array as="points">
              <mxPoint x="311" y="455" />
              <mxPoint x="311" y="400" />
            </Array>
          </mxGeometry>
        </mxCell>
        <mxCell id="4rSlKy-zUTEEd2vc2ofl-28" value="" style="strokeWidth=2;html=1;shape=mxgraph.flowchart.direct_data;whiteSpace=wrap;rotation=-180;" vertex="1" parent="1">
          <mxGeometry x="209" y="450" width="55" height="10" as="geometry" />
        </mxCell>
        <mxCell id="UWmo7tcNuA-eIz2tXKw3-42" value="&lt;br&gt;User Login DB" style="strokeWidth=2;html=1;shape=mxgraph.flowchart.database;whiteSpace=wrap;" vertex="1" parent="1">
          <mxGeometry x="240" y="120" width="60" height="60" as="geometry" />
        </mxCell>
        <mxCell id="UWmo7tcNuA-eIz2tXKw3-41" value="User Management Service" style="rounded=1;whiteSpace=wrap;html=1;absoluteArcSize=1;arcSize=14;strokeWidth=2;" vertex="1" parent="1">
          <mxGeometry x="340" y="120" width="100" height="60" as="geometry" />
        </mxCell>
        <mxCell id="LeZNxXgE5FAns2RfLUwZ-5" value="" style="group" vertex="1" connectable="0" parent="1">
          <mxGeometry x="300" y="150" width="40" height="10" as="geometry" />
        </mxCell>
        <mxCell id="LeZNxXgE5FAns2RfLUwZ-3" value="" style="endArrow=classic;html=1;rounded=0;" edge="1" parent="LeZNxXgE5FAns2RfLUwZ-5">
          <mxGeometry width="50" height="50" relative="1" as="geometry">
            <mxPoint as="sourcePoint" />
            <mxPoint x="40" as="targetPoint" />
          </mxGeometry>
        </mxCell>
        <mxCell id="LeZNxXgE5FAns2RfLUwZ-4" value="" style="endArrow=classic;html=1;rounded=0;" edge="1" parent="LeZNxXgE5FAns2RfLUwZ-5">
          <mxGeometry width="50" height="50" relative="1" as="geometry">
            <mxPoint x="40" y="10" as="sourcePoint" />
            <mxPoint y="9.5" as="targetPoint" />
          </mxGeometry>
        </mxCell>
        <mxCell id="LeZNxXgE5FAns2RfLUwZ-17" value="" style="group" connectable="0" vertex="1" parent="1">
          <mxGeometry x="546.75" y="565" width="20" height="40" as="geometry" />
        </mxCell>
        <mxCell id="LeZNxXgE5FAns2RfLUwZ-15" value="" style="endArrow=classic;html=1;rounded=0;" edge="1" parent="LeZNxXgE5FAns2RfLUwZ-17">
          <mxGeometry width="50" height="50" relative="1" as="geometry">
            <mxPoint x="16" as="sourcePoint" />
            <mxPoint x="16" y="40" as="targetPoint" />
          </mxGeometry>
        </mxCell>
        <mxCell id="LeZNxXgE5FAns2RfLUwZ-16" value="" style="endArrow=classic;html=1;rounded=0;" edge="1" parent="LeZNxXgE5FAns2RfLUwZ-17">
          <mxGeometry width="50" height="50" relative="1" as="geometry">
            <mxPoint x="4" y="40" as="sourcePoint" />
            <mxPoint x="4" as="targetPoint" />
          </mxGeometry>
        </mxCell>
        <mxCell id="1-DJlMxkK741mBJsUIG5-3" value="" style="group" connectable="0" vertex="1" parent="1">
          <mxGeometry x="651.75" y="180" width="20" height="40" as="geometry" />
        </mxCell>
        <mxCell id="1-DJlMxkK741mBJsUIG5-4" value="" style="endArrow=classic;html=1;rounded=0;" edge="1" parent="1-DJlMxkK741mBJsUIG5-3">
          <mxGeometry width="50" height="50" relative="1" as="geometry">
            <mxPoint x="16" as="sourcePoint" />
            <mxPoint x="16" y="40" as="targetPoint" />
          </mxGeometry>
        </mxCell>
        <mxCell id="1-DJlMxkK741mBJsUIG5-5" value="" style="endArrow=classic;html=1;rounded=0;" edge="1" parent="1-DJlMxkK741mBJsUIG5-3">
          <mxGeometry width="50" height="50" relative="1" as="geometry">
            <mxPoint x="4" y="40" as="sourcePoint" />
            <mxPoint x="4" as="targetPoint" />
          </mxGeometry>
        </mxCell>
        <mxCell id="1-DJlMxkK741mBJsUIG5-7" value="" style="group" connectable="0" vertex="1" parent="1">
          <mxGeometry x="651.75" y="280" width="20" height="40" as="geometry" />
        </mxCell>
        <mxCell id="1-DJlMxkK741mBJsUIG5-8" value="" style="endArrow=classic;html=1;rounded=0;" edge="1" parent="1-DJlMxkK741mBJsUIG5-7">
          <mxGeometry width="50" height="50" relative="1" as="geometry">
            <mxPoint x="16" as="sourcePoint" />
            <mxPoint x="16" y="40" as="targetPoint" />
          </mxGeometry>
        </mxCell>
        <mxCell id="1-DJlMxkK741mBJsUIG5-9" value="" style="endArrow=classic;html=1;rounded=0;" edge="1" parent="1-DJlMxkK741mBJsUIG5-7">
          <mxGeometry width="50" height="50" relative="1" as="geometry">
            <mxPoint x="4" y="40" as="sourcePoint" />
            <mxPoint x="4" as="targetPoint" />
          </mxGeometry>
        </mxCell>
        <mxCell id="1-DJlMxkK741mBJsUIG5-13" value="" style="endArrow=classic;startArrow=classic;html=1;rounded=0;entryX=1;entryY=0.25;entryDx=0;entryDy=0;exitX=1;exitY=0.5;exitDx=0;exitDy=0;" edge="1" parent="1" source="sOELaAdXGhDxpeGKIX_B-33" target="UWmo7tcNuA-eIz2tXKw3-51">
          <mxGeometry width="50" height="50" relative="1" as="geometry">
            <mxPoint x="1436" y="570" as="sourcePoint" />
            <mxPoint x="1436" y="510" as="targetPoint" />
            <Array as="points">
              <mxPoint x="1256" y="565" />
              <mxPoint x="1256" y="340" />
              <mxPoint x="1256" y="105" />
            </Array>
          </mxGeometry>
        </mxCell>
        <mxCell id="1-DJlMxkK741mBJsUIG5-14" value="" style="endArrow=classic;startArrow=classic;html=1;rounded=0;entryX=1.001;entryY=0.842;entryDx=0;entryDy=0;entryPerimeter=0;exitX=0.75;exitY=0;exitDx=0;exitDy=0;" edge="1" parent="1" source="sOELaAdXGhDxpeGKIX_B-7" target="UWmo7tcNuA-eIz2tXKw3-51">
          <mxGeometry width="50" height="50" relative="1" as="geometry">
            <mxPoint x="896" y="540" as="sourcePoint" />
            <mxPoint x="1086" y="140" as="targetPoint" />
            <Array as="points">
              <mxPoint x="931" y="510" />
              <mxPoint x="1036" y="510" />
              <mxPoint x="1216" y="510" />
              <mxPoint x="1216" y="140" />
            </Array>
          </mxGeometry>
        </mxCell>
        <mxCell id="1-DJlMxkK741mBJsUIG5-19" value="" style="group" connectable="0" vertex="1" parent="1">
          <mxGeometry x="1046" y="535" width="100" height="160" as="geometry" />
        </mxCell>
        <mxCell id="sOELaAdXGhDxpeGKIX_B-33" value="Knowledge Base Service" style="rounded=1;whiteSpace=wrap;html=1;absoluteArcSize=1;arcSize=14;strokeWidth=2;" vertex="1" parent="1-DJlMxkK741mBJsUIG5-19">
          <mxGeometry width="100" height="60" as="geometry" />
        </mxCell>
        <mxCell id="sOELaAdXGhDxpeGKIX_B-34" value="&lt;br&gt;KB DB" style="strokeWidth=2;html=1;shape=mxgraph.flowchart.database;whiteSpace=wrap;" vertex="1" parent="1-DJlMxkK741mBJsUIG5-19">
          <mxGeometry x="20" y="100" width="60" height="60" as="geometry" />
        </mxCell>
        <mxCell id="1-DJlMxkK741mBJsUIG5-10" value="" style="group" connectable="0" vertex="1" parent="1-DJlMxkK741mBJsUIG5-19">
          <mxGeometry x="37.5" y="60" width="20" height="40" as="geometry" />
        </mxCell>
        <mxCell id="1-DJlMxkK741mBJsUIG5-11" value="" style="endArrow=classic;html=1;rounded=0;" edge="1" parent="1-DJlMxkK741mBJsUIG5-10">
          <mxGeometry width="50" height="50" relative="1" as="geometry">
            <mxPoint x="16" as="sourcePoint" />
            <mxPoint x="16" y="40" as="targetPoint" />
          </mxGeometry>
        </mxCell>
        <mxCell id="1-DJlMxkK741mBJsUIG5-12" value="" style="endArrow=classic;html=1;rounded=0;" edge="1" parent="1-DJlMxkK741mBJsUIG5-10">
          <mxGeometry width="50" height="50" relative="1" as="geometry">
            <mxPoint x="4" y="40" as="sourcePoint" />
            <mxPoint x="4" as="targetPoint" />
          </mxGeometry>
        </mxCell>
        <mxCell id="1-DJlMxkK741mBJsUIG5-30" style="edgeStyle=orthogonalEdgeStyle;rounded=0;orthogonalLoop=1;jettySize=auto;html=1;" edge="1" parent="1">
          <mxGeometry relative="1" as="geometry">
            <mxPoint x="520" y="730" as="sourcePoint" />
            <mxPoint x="535" y="792" as="targetPoint" />
            <Array as="points">
              <mxPoint x="520" y="730" />
              <mxPoint x="535" y="730" />
            </Array>
          </mxGeometry>
        </mxCell>
        <mxCell id="1-DJlMxkK741mBJsUIG5-28" value="" style="strokeWidth=2;html=1;shape=mxgraph.flowchart.direct_data;whiteSpace=wrap;rotation=-180;" vertex="1" parent="1">
          <mxGeometry x="456" y="725" width="55" height="10" as="geometry" />
        </mxCell>
        <mxCell id="1-DJlMxkK741mBJsUIG5-40" style="edgeStyle=orthogonalEdgeStyle;rounded=0;orthogonalLoop=1;jettySize=auto;html=1;" edge="1" parent="1">
          <mxGeometry relative="1" as="geometry">
            <mxPoint x="570" y="350" as="sourcePoint" />
            <mxPoint x="605.75" y="350" as="targetPoint" />
          </mxGeometry>
        </mxCell>
        <mxCell id="1-DJlMxkK741mBJsUIG5-38" value="" style="strokeWidth=2;html=1;shape=mxgraph.flowchart.direct_data;whiteSpace=wrap;rotation=-180;" vertex="1" parent="1">
          <mxGeometry x="472.75" y="345" width="55" height="10" as="geometry" />
        </mxCell>
        <mxCell id="1-DJlMxkK741mBJsUIG5-44" value="&lt;div style=&quot;text-align: center;&quot;&gt;&lt;span style=&quot;background-color: initial;&quot;&gt;[ticket-complete]&lt;/span&gt;&lt;/div&gt;" style="text;whiteSpace=wrap;html=1;" vertex="1" parent="1">
          <mxGeometry x="190" y="250" width="98.5" height="30" as="geometry" />
        </mxCell>
        <mxCell id="1-DJlMxkK741mBJsUIG5-45" value="&lt;div style=&quot;text-align: center;&quot;&gt;&lt;span style=&quot;background-color: initial;&quot;&gt;[ticket-created]&lt;/span&gt;&lt;/div&gt;" style="text;whiteSpace=wrap;html=1;" vertex="1" parent="1">
          <mxGeometry x="187.25" y="465" width="98.5" height="30" as="geometry" />
        </mxCell>
        <mxCell id="1-DJlMxkK741mBJsUIG5-95" style="edgeStyle=orthogonalEdgeStyle;rounded=0;orthogonalLoop=1;jettySize=auto;html=1;" edge="1" parent="1">
          <mxGeometry relative="1" as="geometry">
            <mxPoint x="468" y="350" as="targetPoint" />
            <mxPoint x="409" y="350" as="sourcePoint" />
          </mxGeometry>
        </mxCell>
        <mxCell id="1-DJlMxkK741mBJsUIG5-46" value="Ticket Management Mediator" style="rounded=1;whiteSpace=wrap;html=1;absoluteArcSize=1;arcSize=14;strokeWidth=2;" vertex="1" parent="1">
          <mxGeometry x="275.75" y="335" width="120" height="60" as="geometry" />
        </mxCell>
        <mxCell id="1-DJlMxkK741mBJsUIG5-68" value="&lt;div style=&quot;text-align: center;&quot;&gt;&lt;span style=&quot;background-color: initial;&quot;&gt;[payment-required]&lt;/span&gt;&lt;/div&gt;" style="text;whiteSpace=wrap;html=1;" vertex="1" parent="1">
          <mxGeometry x="430" y="736" width="110" height="30" as="geometry" />
        </mxCell>
        <mxCell id="1-DJlMxkK741mBJsUIG5-82" value="&lt;div style=&quot;text-align: center;&quot;&gt;&lt;span style=&quot;background-color: initial;&quot;&gt;[enriched-ticket-created]&lt;/span&gt;&lt;/div&gt;" style="text;whiteSpace=wrap;html=1;" vertex="1" parent="1">
          <mxGeometry x="415.75" y="315" width="138.5" height="30" as="geometry" />
        </mxCell>
        <mxCell id="UWmo7tcNuA-eIz2tXKw3-15" value="Billing Service" style="rounded=1;whiteSpace=wrap;html=1;absoluteArcSize=1;arcSize=14;strokeWidth=2;" vertex="1" parent="1">
          <mxGeometry x="485" y="795" width="100" height="60" as="geometry" />
        </mxCell>
        <mxCell id="UWmo7tcNuA-eIz2tXKw3-23" value="" style="endArrow=classic;startArrow=classic;html=1;rounded=0;entryX=0.5;entryY=1;entryDx=0;entryDy=0;" edge="1" parent="1" source="UWmo7tcNuA-eIz2tXKw3-47" target="UWmo7tcNuA-eIz2tXKw3-15">
          <mxGeometry width="50" height="50" relative="1" as="geometry">
            <mxPoint x="200" y="816" as="sourcePoint" />
            <mxPoint x="315" y="726" as="targetPoint" />
          </mxGeometry>
        </mxCell>
        <mxCell id="1-DJlMxkK741mBJsUIG5-105" value="" style="group" connectable="0" vertex="1" parent="1">
          <mxGeometry x="795" y="90" width="177" height="60" as="geometry" />
        </mxCell>
        <mxCell id="UWmo7tcNuA-eIz2tXKw3-51" value="&lt;b&gt;&lt;span style=&quot;white-space: pre;&quot;&gt;&#x9;&lt;/span&gt;&lt;span style=&quot;white-space: pre;&quot;&gt;&#x9;&lt;/span&gt;EXPERT-FACING&lt;br&gt;&lt;span style=&quot;white-space: pre;&quot;&gt;&#x9;&lt;/span&gt;&lt;span style=&quot;white-space: pre;&quot;&gt;&#x9;&lt;/span&gt;MOBILE APP&lt;/b&gt;" style="rounded=1;whiteSpace=wrap;html=1;absoluteArcSize=1;arcSize=14;strokeWidth=2;" vertex="1" parent="1-DJlMxkK741mBJsUIG5-105">
          <mxGeometry width="177" height="60" as="geometry" />
        </mxCell>
        <mxCell id="1-DJlMxkK741mBJsUIG5-104" value="" style="sketch=0;points=[[0.015,0.015,0],[0.985,0.015,0],[0.985,0.985,0],[0.015,0.985,0],[0.25,0,0],[0.5,0,0],[0.75,0,0],[1,0.25,0],[1,0.5,0],[1,0.75,0],[0.75,1,0],[0.5,1,0],[0.25,1,0],[0,0.75,0],[0,0.5,0],[0,0.25,0]];verticalLabelPosition=bottom;html=1;verticalAlign=top;aspect=fixed;align=center;pointerEvents=1;shape=mxgraph.cisco19.cell_phone;fillColor=#005073;strokeColor=none;" vertex="1" parent="1-DJlMxkK741mBJsUIG5-105">
          <mxGeometry x="22.5" y="5" width="25" height="50" as="geometry" />
        </mxCell>
        <mxCell id="1-DJlMxkK741mBJsUIG5-110" value="" style="group" connectable="0" vertex="1" parent="1">
          <mxGeometry x="21" y="700" width="200" height="60" as="geometry" />
        </mxCell>
        <mxCell id="HOSZesTvu6yCZXEizFdF-9" value="&lt;b&gt;&lt;span style=&quot;white-space: pre;&quot;&gt;&#x9;&lt;/span&gt;&lt;span style=&quot;white-space: pre;&quot;&gt;&#x9;&lt;/span&gt;CLIENT-FACING&lt;span style=&quot;white-space: pre;&quot;&gt;&#x9;&lt;/span&gt;&lt;span style=&quot;white-space: pre;&quot;&gt;&#x9;&lt;/span&gt;&lt;br&gt;&lt;span style=&quot;white-space: pre;&quot;&gt;&#x9;&lt;/span&gt;&lt;span style=&quot;white-space: pre;&quot;&gt;&#x9;&lt;/span&gt;WEB APP&lt;/b&gt;" style="rounded=1;whiteSpace=wrap;html=1;absoluteArcSize=1;arcSize=14;strokeWidth=2;" vertex="1" parent="1-DJlMxkK741mBJsUIG5-110">
          <mxGeometry width="200" height="60" as="geometry" />
        </mxCell>
        <mxCell id="1-DJlMxkK741mBJsUIG5-101" value="" style="verticalLabelPosition=bottom;aspect=fixed;html=1;shape=mxgraph.salesforce.web;" vertex="1" parent="1-DJlMxkK741mBJsUIG5-110">
          <mxGeometry x="10.001428571428573" y="13.149999999999977" width="42.66" height="33.7" as="geometry" />
        </mxCell>
        <mxCell id="1-DJlMxkK741mBJsUIG5-111" value="" style="group" connectable="0" vertex="1" parent="1">
          <mxGeometry x="465" y="916" width="140" height="60" as="geometry" />
        </mxCell>
        <mxCell id="UWmo7tcNuA-eIz2tXKw3-47" value="&lt;b&gt;&amp;nbsp;&lt;span style=&quot;white-space: pre;&quot;&gt;&#x9;&lt;/span&gt;BANK&lt;/b&gt;" style="rounded=1;whiteSpace=wrap;html=1;absoluteArcSize=1;arcSize=14;strokeWidth=2;" vertex="1" parent="1-DJlMxkK741mBJsUIG5-111">
          <mxGeometry width="140" height="60" as="geometry" />
        </mxCell>
        <mxCell id="1-DJlMxkK741mBJsUIG5-100" value="" style="shape=image;html=1;verticalAlign=top;verticalLabelPosition=bottom;labelBackgroundColor=#ffffff;imageAspect=0;aspect=fixed;image=https://cdn0.iconfinder.com/data/icons/phosphor-duotone-vol-1/256/bank-duotone-128.png" vertex="1" parent="1-DJlMxkK741mBJsUIG5-111">
          <mxGeometry x="7.75" y="5.5" width="49" height="49" as="geometry" />
        </mxCell>
        <mxCell id="1-DJlMxkK741mBJsUIG5-112" value="" style="group" connectable="0" vertex="1" parent="1">
          <mxGeometry x="933" y="170" width="123" height="60" as="geometry" />
        </mxCell>
        <mxCell id="1-DJlMxkK741mBJsUIG5-18" value="&lt;b&gt;&lt;span style=&quot;white-space: pre;&quot;&gt;&#x9;&lt;/span&gt;Email&lt;/b&gt;" style="rounded=1;whiteSpace=wrap;html=1;absoluteArcSize=1;arcSize=14;strokeWidth=2;" vertex="1" parent="1-DJlMxkK741mBJsUIG5-112">
          <mxGeometry width="123" height="60" as="geometry" />
        </mxCell>
        <mxCell id="1-DJlMxkK741mBJsUIG5-107" value="" style="sketch=0;outlineConnect=0;fontColor=#232F3E;gradientColor=none;strokeColor=#232F3E;fillColor=#ffffff;dashed=0;verticalLabelPosition=bottom;verticalAlign=top;align=center;html=1;fontSize=12;fontStyle=0;aspect=fixed;shape=mxgraph.aws4.resourceIcon;resIcon=mxgraph.aws4.email;" vertex="1" parent="1-DJlMxkK741mBJsUIG5-112">
          <mxGeometry x="11" y="10" width="40" height="40" as="geometry" />
        </mxCell>
        <mxCell id="1-DJlMxkK741mBJsUIG5-113" value="" style="group" connectable="0" vertex="1" parent="1">
          <mxGeometry x="1083" y="170" width="103" height="60" as="geometry" />
        </mxCell>
        <mxCell id="1-DJlMxkK741mBJsUIG5-21" value="&lt;b&gt;&lt;span style=&quot;white-space: pre;&quot;&gt;&#x9;&lt;/span&gt;SMS&lt;/b&gt;" style="rounded=1;whiteSpace=wrap;html=1;absoluteArcSize=1;arcSize=14;strokeWidth=2;" vertex="1" parent="1-DJlMxkK741mBJsUIG5-113">
          <mxGeometry width="103" height="60" as="geometry" />
        </mxCell>
        <mxCell id="1-DJlMxkK741mBJsUIG5-108" value="" style="shape=image;html=1;verticalAlign=top;verticalLabelPosition=bottom;labelBackgroundColor=#ffffff;imageAspect=0;aspect=fixed;image=https://cdn1.iconfinder.com/data/icons/communication-icons-10/750/Untitled-1-09-128.png" vertex="1" parent="1-DJlMxkK741mBJsUIG5-113">
          <mxGeometry x="3" y="10" width="42.5" height="42.5" as="geometry" />
        </mxCell>
        <mxCell id="1-DJlMxkK741mBJsUIG5-134" style="edgeStyle=orthogonalEdgeStyle;rounded=0;orthogonalLoop=1;jettySize=auto;html=1;" edge="1" parent="1">
          <mxGeometry relative="1" as="geometry">
            <mxPoint x="545" y="380" as="sourcePoint" />
            <mxPoint x="1005" y="465" as="targetPoint" />
            <Array as="points">
              <mxPoint x="590" y="380" />
              <mxPoint x="590" y="465" />
            </Array>
          </mxGeometry>
        </mxCell>
        <mxCell id="1-DJlMxkK741mBJsUIG5-137" value="" style="strokeWidth=2;html=1;shape=mxgraph.flowchart.direct_data;whiteSpace=wrap;rotation=-180;" vertex="1" parent="1">
          <mxGeometry x="452.99" y="375" width="55" height="10" as="geometry" />
        </mxCell>
        <mxCell id="1-DJlMxkK741mBJsUIG5-138" value="&lt;div style=&quot;text-align: center;&quot;&gt;&lt;span style=&quot;background-color: initial;&quot;&gt;[enriched-ticket-complete]&lt;/span&gt;&lt;/div&gt;" style="text;whiteSpace=wrap;html=1;" vertex="1" parent="1">
          <mxGeometry x="386.75" y="390" width="140" height="20" as="geometry" />
        </mxCell>
        <mxCell id="1-DJlMxkK741mBJsUIG5-140" style="edgeStyle=orthogonalEdgeStyle;rounded=0;orthogonalLoop=1;jettySize=auto;html=1;" edge="1" parent="1">
          <mxGeometry relative="1" as="geometry">
            <mxPoint x="513.99" y="380" as="sourcePoint" />
            <mxPoint x="540" y="500" as="targetPoint" />
            <Array as="points">
              <mxPoint x="540" y="380" />
              <mxPoint x="540" y="480" />
            </Array>
          </mxGeometry>
        </mxCell>
        <mxCell id="1-DJlMxkK741mBJsUIG5-142" value="" style="strokeWidth=2;html=1;shape=mxgraph.flowchart.direct_data;whiteSpace=wrap;rotation=-180;" vertex="1" parent="1">
          <mxGeometry x="806" y="360" width="55" height="10" as="geometry" />
        </mxCell>
        <mxCell id="1-DJlMxkK741mBJsUIG5-143" style="edgeStyle=orthogonalEdgeStyle;rounded=0;orthogonalLoop=1;jettySize=auto;html=1;" edge="1" parent="1">
          <mxGeometry relative="1" as="geometry">
            <mxPoint x="720" y="365" as="sourcePoint" />
            <mxPoint x="803" y="365" as="targetPoint" />
            <Array as="points">
              <mxPoint x="786" y="365" />
              <mxPoint x="786" y="365" />
            </Array>
          </mxGeometry>
        </mxCell>
        <mxCell id="1-DJlMxkK741mBJsUIG5-144" style="edgeStyle=orthogonalEdgeStyle;rounded=0;orthogonalLoop=1;jettySize=auto;html=1;" edge="1" parent="1">
          <mxGeometry relative="1" as="geometry">
            <mxPoint x="901" y="365" as="sourcePoint" />
            <mxPoint x="1006" y="365" as="targetPoint" />
            <Array as="points">
              <mxPoint x="936" y="365" />
              <mxPoint x="936" y="365" />
            </Array>
          </mxGeometry>
        </mxCell>
        <mxCell id="1-DJlMxkK741mBJsUIG5-145" value="&lt;div style=&quot;text-align: center;&quot;&gt;&lt;span style=&quot;background-color: initial;&quot;&gt;[expert-assigned]&lt;/span&gt;&lt;/div&gt;" style="text;whiteSpace=wrap;html=1;" vertex="1" parent="1">
          <mxGeometry x="776" y="375" width="95" height="30" as="geometry" />
        </mxCell>
        <mxCell id="1-DJlMxkK741mBJsUIG5-152" value="" style="endArrow=none;html=1;rounded=0;" edge="1" parent="1">
          <mxGeometry width="50" height="50" relative="1" as="geometry">
            <mxPoint x="896" y="460" as="sourcePoint" />
            <mxPoint x="866" y="365" as="targetPoint" />
            <Array as="points">
              <mxPoint x="896" y="365" />
            </Array>
          </mxGeometry>
        </mxCell>
        <mxCell id="1-DJlMxkK741mBJsUIG5-153" value="" style="endArrow=classic;html=1;rounded=0;entryX=0.4;entryY=0;entryDx=0;entryDy=0;entryPerimeter=0;" edge="1" parent="1" target="sOELaAdXGhDxpeGKIX_B-7">
          <mxGeometry width="50" height="50" relative="1" as="geometry">
            <mxPoint x="896" y="470" as="sourcePoint" />
            <mxPoint x="946" y="430" as="targetPoint" />
          </mxGeometry>
        </mxCell>
        <mxCell id="7pVH0qMVgAu8HJYiCu22-2" style="edgeStyle=orthogonalEdgeStyle;rounded=0;orthogonalLoop=1;jettySize=auto;html=1;" edge="1" parent="1">
          <mxGeometry relative="1" as="geometry">
            <mxPoint x="447" y="380" as="targetPoint" />
            <mxPoint x="410" y="380" as="sourcePoint" />
            <Array as="points">
              <mxPoint x="430" y="380" />
              <mxPoint x="430" y="380" />
            </Array>
          </mxGeometry>
        </mxCell>
        <mxCell id="7pVH0qMVgAu8HJYiCu22-4" value="" style="endArrow=none;html=1;rounded=0;" edge="1" parent="1">
          <mxGeometry width="50" height="50" relative="1" as="geometry">
            <mxPoint x="565" y="376" as="sourcePoint" />
            <mxPoint x="535" y="350" as="targetPoint" />
            <Array as="points">
              <mxPoint x="565" y="350" />
            </Array>
          </mxGeometry>
        </mxCell>
        <mxCell id="7pVH0qMVgAu8HJYiCu22-5" value="" style="endArrow=classic;html=1;rounded=0;" edge="1" parent="1">
          <mxGeometry width="50" height="50" relative="1" as="geometry">
            <mxPoint x="565" y="384" as="sourcePoint" />
            <mxPoint x="565" y="500" as="targetPoint" />
          </mxGeometry>
        </mxCell>
        <mxCell id="7pVH0qMVgAu8HJYiCu22-32" style="edgeStyle=orthogonalEdgeStyle;rounded=0;orthogonalLoop=1;jettySize=auto;html=1;entryX=0.5;entryY=1;entryDx=0;entryDy=0;" edge="1" parent="1" target="UWmo7tcNuA-eIz2tXKw3-18">
          <mxGeometry relative="1" as="geometry">
            <mxPoint x="720" y="810" as="sourcePoint" />
            <Array as="points">
              <mxPoint x="853" y="810" />
            </Array>
          </mxGeometry>
        </mxCell>
        <mxCell id="7pVH0qMVgAu8HJYiCu22-11" value="" style="strokeWidth=2;html=1;shape=mxgraph.flowchart.direct_data;whiteSpace=wrap;rotation=-180;" vertex="1" parent="1">
          <mxGeometry x="657" y="805" width="55" height="10" as="geometry" />
        </mxCell>
        <mxCell id="7pVH0qMVgAu8HJYiCu22-14" value="&lt;div style=&quot;text-align: center;&quot;&gt;&lt;span style=&quot;background-color: initial;&quot;&gt;[payment-accepted]&lt;/span&gt;&lt;/div&gt;" style="text;whiteSpace=wrap;html=1;" vertex="1" parent="1">
          <mxGeometry x="620" y="775" width="110" height="30" as="geometry" />
        </mxCell>
        <mxCell id="7pVH0qMVgAu8HJYiCu22-18" value="" style="group" connectable="0" vertex="1" parent="1">
          <mxGeometry x="803" y="672" width="202" height="60" as="geometry" />
        </mxCell>
        <mxCell id="UWmo7tcNuA-eIz2tXKw3-18" value="Customer Payment History" style="rounded=1;whiteSpace=wrap;html=1;absoluteArcSize=1;arcSize=14;strokeWidth=2;" vertex="1" parent="7pVH0qMVgAu8HJYiCu22-18">
          <mxGeometry width="100" height="60" as="geometry" />
        </mxCell>
        <mxCell id="UWmo7tcNuA-eIz2tXKw3-19" value="&lt;br&gt;Billing History DB" style="strokeWidth=2;html=1;shape=mxgraph.flowchart.database;whiteSpace=wrap;" vertex="1" parent="7pVH0qMVgAu8HJYiCu22-18">
          <mxGeometry x="142" width="60" height="60" as="geometry" />
        </mxCell>
        <mxCell id="7pVH0qMVgAu8HJYiCu22-15" value="" style="group" connectable="0" vertex="1" parent="7pVH0qMVgAu8HJYiCu22-18">
          <mxGeometry x="101" y="28" width="40" height="10" as="geometry" />
        </mxCell>
        <mxCell id="7pVH0qMVgAu8HJYiCu22-16" value="" style="endArrow=classic;html=1;rounded=0;" edge="1" parent="7pVH0qMVgAu8HJYiCu22-15">
          <mxGeometry width="50" height="50" relative="1" as="geometry">
            <mxPoint as="sourcePoint" />
            <mxPoint x="40" as="targetPoint" />
          </mxGeometry>
        </mxCell>
        <mxCell id="7pVH0qMVgAu8HJYiCu22-17" value="" style="endArrow=classic;html=1;rounded=0;" edge="1" parent="7pVH0qMVgAu8HJYiCu22-15">
          <mxGeometry width="50" height="50" relative="1" as="geometry">
            <mxPoint x="40" y="10" as="sourcePoint" />
            <mxPoint y="9.5" as="targetPoint" />
          </mxGeometry>
        </mxCell>
        <mxCell id="7pVH0qMVgAu8HJYiCu22-20" value="" style="strokeWidth=2;html=1;shape=mxgraph.flowchart.direct_data;whiteSpace=wrap;rotation=-180;" vertex="1" parent="1">
          <mxGeometry x="656" y="835" width="55" height="10" as="geometry" />
        </mxCell>
        <mxCell id="7pVH0qMVgAu8HJYiCu22-21" value="&lt;div style=&quot;text-align: center;&quot;&gt;&lt;span style=&quot;background-color: initial;&quot;&gt;[payment-denied]&lt;/span&gt;&lt;/div&gt;" style="text;whiteSpace=wrap;html=1;" vertex="1" parent="1">
          <mxGeometry x="620" y="850" width="110" height="30" as="geometry" />
        </mxCell>
        <mxCell id="7pVH0qMVgAu8HJYiCu22-22" style="edgeStyle=orthogonalEdgeStyle;rounded=0;orthogonalLoop=1;jettySize=auto;html=1;" edge="1" parent="1">
          <mxGeometry relative="1" as="geometry">
            <mxPoint x="590" y="840" as="sourcePoint" />
            <mxPoint x="650" y="840" as="targetPoint" />
            <Array as="points">
              <mxPoint x="620" y="840" />
              <mxPoint x="620" y="840" />
            </Array>
          </mxGeometry>
        </mxCell>
        <mxCell id="7pVH0qMVgAu8HJYiCu22-25" value="" style="endArrow=none;html=1;rounded=0;" edge="1" parent="1">
          <mxGeometry width="50" height="50" relative="1" as="geometry">
            <mxPoint x="1260" y="335" as="sourcePoint" />
            <mxPoint x="720" y="840" as="targetPoint" />
            <Array as="points">
              <mxPoint x="1290" y="335" />
              <mxPoint x="1290" y="840" />
              <mxPoint x="910" y="840" />
            </Array>
          </mxGeometry>
        </mxCell>
        <mxCell id="7pVH0qMVgAu8HJYiCu22-26" style="edgeStyle=orthogonalEdgeStyle;rounded=0;orthogonalLoop=1;jettySize=auto;html=1;" edge="1" parent="1">
          <mxGeometry relative="1" as="geometry">
            <mxPoint x="1210" y="370.08" as="sourcePoint" />
            <mxPoint x="1120" y="370" as="targetPoint" />
            <Array as="points">
              <mxPoint x="1155" y="370" />
              <mxPoint x="1155" y="370" />
            </Array>
          </mxGeometry>
        </mxCell>
        <mxCell id="7pVH0qMVgAu8HJYiCu22-27" value="" style="endArrow=none;html=1;rounded=0;" edge="1" parent="1">
          <mxGeometry width="50" height="50" relative="1" as="geometry">
            <mxPoint x="1220" y="369.81" as="sourcePoint" />
            <mxPoint x="1250" y="369.81" as="targetPoint" />
          </mxGeometry>
        </mxCell>
        <mxCell id="7pVH0qMVgAu8HJYiCu22-28" value="" style="endArrow=none;html=1;rounded=0;" edge="1" parent="1">
          <mxGeometry width="50" height="50" relative="1" as="geometry">
            <mxPoint x="1220" y="335" as="sourcePoint" />
            <mxPoint x="1250" y="335" as="targetPoint" />
          </mxGeometry>
        </mxCell>
        <mxCell id="7pVH0qMVgAu8HJYiCu22-29" style="edgeStyle=orthogonalEdgeStyle;rounded=0;orthogonalLoop=1;jettySize=auto;html=1;" edge="1" parent="1">
          <mxGeometry relative="1" as="geometry">
            <mxPoint x="1210" y="335.27" as="sourcePoint" />
            <mxPoint x="1120" y="335.19" as="targetPoint" />
            <Array as="points">
              <mxPoint x="1155" y="335.19" />
              <mxPoint x="1155" y="335.19" />
            </Array>
          </mxGeometry>
        </mxCell>
        <mxCell id="7pVH0qMVgAu8HJYiCu22-30" value="" style="endArrow=none;html=1;rounded=0;" edge="1" parent="1">
          <mxGeometry width="50" height="50" relative="1" as="geometry">
            <mxPoint x="1260" y="370" as="sourcePoint" />
            <mxPoint x="860" y="810" as="targetPoint" />
            <Array as="points">
              <mxPoint x="1270" y="370" />
              <mxPoint x="1270" y="810" />
              <mxPoint x="911" y="810" />
            </Array>
          </mxGeometry>
        </mxCell>
        <mxCell id="7pVH0qMVgAu8HJYiCu22-31" style="edgeStyle=orthogonalEdgeStyle;rounded=0;orthogonalLoop=1;jettySize=auto;html=1;" edge="1" parent="1">
          <mxGeometry relative="1" as="geometry">
            <mxPoint x="590" y="810" as="sourcePoint" />
            <mxPoint x="650" y="810" as="targetPoint" />
            <Array as="points">
              <mxPoint x="620" y="810" />
              <mxPoint x="620" y="810" />
            </Array>
          </mxGeometry>
        </mxCell>
        <mxCell id="7pVH0qMVgAu8HJYiCu22-33" value="" style="endArrow=classic;startArrow=classic;html=1;rounded=0;entryX=0;entryY=0.75;entryDx=0;entryDy=0;exitX=1;exitY=0.75;exitDx=0;exitDy=0;" edge="1" parent="1" source="HOSZesTvu6yCZXEizFdF-9" target="UWmo7tcNuA-eIz2tXKw3-10">
          <mxGeometry width="50" height="50" relative="1" as="geometry">
            <mxPoint x="250" y="730" as="sourcePoint" />
            <mxPoint x="300" y="680" as="targetPoint" />
          </mxGeometry>
        </mxCell>
        <mxCell id="lpkIHrekxxg5M1ELqe1B-14" value="" style="endArrow=none;html=1;rounded=0;" edge="1" parent="1">
          <mxGeometry width="50" height="50" relative="1" as="geometry">
            <mxPoint x="1524" y="218" as="sourcePoint" />
            <mxPoint x="1524" y="218" as="targetPoint" />
          </mxGeometry>
        </mxCell>
        <mxCell id="lpkIHrekxxg5M1ELqe1B-16" value="Customer Management Service" style="swimlane;whiteSpace=wrap;html=1;" vertex="1" parent="1">
          <mxGeometry x="1454.5" y="553" width="200" height="110" as="geometry" />
        </mxCell>
        <mxCell id="lpkIHrekxxg5M1ELqe1B-17" value="Customer Profile&lt;br&gt;Customer Login&lt;br&gt;&lt;u&gt;Customer UI&lt;/u&gt;" style="text;html=1;align=center;verticalAlign=middle;resizable=0;points=[];autosize=1;strokeColor=none;fillColor=none;" vertex="1" parent="lpkIHrekxxg5M1ELqe1B-16">
          <mxGeometry x="45" y="35" width="110" height="60" as="geometry" />
        </mxCell>
        <mxCell id="4rSlKy-zUTEEd2vc2ofl-15" value="Expert Management Service" style="swimlane;whiteSpace=wrap;html=1;" vertex="1" parent="1">
          <mxGeometry x="1454" y="345.5" width="180" height="95" as="geometry" />
        </mxCell>
        <mxCell id="4rSlKy-zUTEEd2vc2ofl-18" value="Ticket Management Service" style="swimlane;whiteSpace=wrap;html=1;" vertex="1" parent="1">
          <mxGeometry x="1454" y="228" width="190" height="100" as="geometry" />
        </mxCell>
        <mxCell id="HOSZesTvu6yCZXEizFdF-1" value="Customer Survey Service" style="swimlane;whiteSpace=wrap;html=1;startSize=43;" vertex="1" parent="1">
          <mxGeometry x="1771" y="610" width="158" height="93" as="geometry" />
        </mxCell>
        <mxCell id="1-DJlMxkK741mBJsUIG5-48" value="Assignment &amp;amp; Routing Service" style="swimlane;whiteSpace=wrap;html=1;" vertex="1" parent="1">
          <mxGeometry x="1454" y="113" width="190" height="100" as="geometry">
            <mxRectangle x="1454" y="113" width="210" height="26" as="alternateBounds" />
          </mxGeometry>
        </mxCell>
        <mxCell id="1-DJlMxkK741mBJsUIG5-49" value="Ticket Assignment&lt;br style=&quot;border-color: var(--border-color);&quot;&gt;Ticket Routing" style="text;html=1;align=center;verticalAlign=middle;resizable=0;points=[];autosize=1;strokeColor=none;fillColor=none;" vertex="1" parent="1-DJlMxkK741mBJsUIG5-48">
          <mxGeometry x="35" y="35" width="120" height="40" as="geometry" />
        </mxCell>
        <mxCell id="lpkIHrekxxg5M1ELqe1B-20" value="Billing Service" style="swimlane;whiteSpace=wrap;html=1;startSize=23;" vertex="1" parent="1">
          <mxGeometry x="1990" y="535" width="160" height="80" as="geometry" />
        </mxCell>
        <mxCell id="lpkIHrekxxg5M1ELqe1B-21" value="Customer Billing" style="text;html=1;align=center;verticalAlign=middle;resizable=0;points=[];autosize=1;strokeColor=none;fillColor=none;" vertex="1" parent="lpkIHrekxxg5M1ELqe1B-20">
          <mxGeometry x="25" y="30" width="110" height="30" as="geometry" />
        </mxCell>
        <mxCell id="1-DJlMxkK741mBJsUIG5-87" value="Knowledge Base Service" style="swimlane;whiteSpace=wrap;html=1;startSize=23;" vertex="1" parent="1">
          <mxGeometry x="1683" y="230" width="200" height="90" as="geometry" />
        </mxCell>
        <mxCell id="1-DJlMxkK741mBJsUIG5-88" value="Search KB&lt;br&gt;Retrieve KB&lt;br&gt;Add KB" style="text;html=1;align=center;verticalAlign=middle;resizable=0;points=[];autosize=1;strokeColor=none;fillColor=none;" vertex="1" parent="1-DJlMxkK741mBJsUIG5-87">
          <mxGeometry x="55" y="30" width="90" height="60" as="geometry" />
        </mxCell>
        <mxCell id="1-DJlMxkK741mBJsUIG5-89" value="Notification Service" style="swimlane;whiteSpace=wrap;html=1;startSize=23;" vertex="1" parent="1">
          <mxGeometry x="1683" y="345.5" width="200" height="90" as="geometry" />
        </mxCell>
        <mxCell id="1-DJlMxkK741mBJsUIG5-90" value="Customer Notification&lt;br&gt;Customer Survey" style="text;html=1;align=center;verticalAlign=middle;resizable=0;points=[];autosize=1;strokeColor=none;fillColor=none;" vertex="1" parent="1-DJlMxkK741mBJsUIG5-89">
          <mxGeometry x="30" y="30" width="140" height="40" as="geometry" />
        </mxCell>
        <mxCell id="7pVH0qMVgAu8HJYiCu22-6" value="User Management Service" style="swimlane;whiteSpace=wrap;html=1;" vertex="1" parent="1">
          <mxGeometry x="1995" y="250" width="190" height="100" as="geometry" />
        </mxCell>
        <mxCell id="7pVH0qMVgAu8HJYiCu22-7" value="User Maintenance" style="text;html=1;align=center;verticalAlign=middle;resizable=0;points=[];autosize=1;strokeColor=none;fillColor=none;" vertex="1" parent="7pVH0qMVgAu8HJYiCu22-6">
          <mxGeometry x="40" y="40" width="120" height="30" as="geometry" />
        </mxCell>
        <mxCell id="gHPYyfBSmbwBN6MeL0_p-1" value="Payment History" style="swimlane;whiteSpace=wrap;html=1;startSize=43;" vertex="1" parent="1">
          <mxGeometry x="1771" y="731" width="158" height="93" as="geometry" />
        </mxCell>
        <mxCell id="gHPYyfBSmbwBN6MeL0_p-2" value="Payment History" style="text;html=1;align=center;verticalAlign=middle;resizable=0;points=[];autosize=1;strokeColor=none;fillColor=none;" vertex="1" parent="1">
          <mxGeometry x="1795" y="786" width="110" height="30" as="geometry" />
        </mxCell>
        <mxCell id="HOSZesTvu6yCZXEizFdF-2" value="Customer Survey" style="text;html=1;align=center;verticalAlign=middle;resizable=0;points=[];autosize=1;strokeColor=none;fillColor=none;" vertex="1" parent="1">
          <mxGeometry x="1790" y="665" width="120" height="30" as="geometry" />
        </mxCell>
        <mxCell id="4rSlKy-zUTEEd2vc2ofl-16" value="Admin Login&lt;br&gt;Expert Profile" style="text;html=1;align=center;verticalAlign=middle;resizable=0;points=[];autosize=1;strokeColor=none;fillColor=none;" vertex="1" parent="1">
          <mxGeometry x="1494" y="380.5" width="100" height="40" as="geometry" />
        </mxCell>
        <mxCell id="4rSlKy-zUTEEd2vc2ofl-19" value="Ticket Creation&lt;br&gt;Ticket Completion" style="text;html=1;align=center;verticalAlign=middle;resizable=0;points=[];autosize=1;strokeColor=none;fillColor=none;" vertex="1" parent="1">
          <mxGeometry x="1489" y="263" width="120" height="40" as="geometry" />
        </mxCell>
      </root>
    </mxGraphModel>
  </diagram>
  <diagram id="fDGCc6EOadKBA9qgo1DH" name="OLD">
    <mxGraphModel grid="1" page="1" gridSize="10" guides="1" tooltips="1" connect="1" arrows="1" fold="1" pageScale="1" pageWidth="1700" pageHeight="1100" math="0" shadow="0">
      <root>
        <mxCell id="0" />
        <mxCell id="1" parent="0" />
        <mxCell id="4g47qL0nQ_y-rFmFgvP6-1" style="edgeStyle=orthogonalEdgeStyle;rounded=0;orthogonalLoop=1;jettySize=auto;html=1;exitX=1;exitY=0.5;exitDx=0;exitDy=0;exitPerimeter=0;" edge="1" parent="1" source="4g47qL0nQ_y-rFmFgvP6-2">
          <mxGeometry relative="1" as="geometry">
            <mxPoint x="315" y="539.9411764705883" as="targetPoint" />
          </mxGeometry>
        </mxCell>
        <mxCell id="4g47qL0nQ_y-rFmFgvP6-2" value="User submits newly created ticket" style="strokeWidth=2;html=1;shape=mxgraph.flowchart.document2;whiteSpace=wrap;size=0.25;" vertex="1" parent="1">
          <mxGeometry x="125" y="510" width="120" height="60" as="geometry" />
        </mxCell>
        <mxCell id="4g47qL0nQ_y-rFmFgvP6-3" style="edgeStyle=orthogonalEdgeStyle;rounded=0;orthogonalLoop=1;jettySize=auto;html=1;exitX=0.75;exitY=0;exitDx=0;exitDy=0;entryX=1;entryY=0.75;entryDx=0;entryDy=0;" edge="1" parent="1">
          <mxGeometry relative="1" as="geometry">
            <Array as="points">
              <mxPoint x="986.5" y="639.97" />
              <mxPoint x="986.5" y="519.97" />
              <mxPoint x="1278.5" y="519.97" />
              <mxPoint x="1278.5" y="194.97" />
            </Array>
            <mxPoint x="1011" y="639.97" as="sourcePoint" />
            <mxPoint x="1181" y="194.97" as="targetPoint" />
          </mxGeometry>
        </mxCell>
        <mxCell id="4g47qL0nQ_y-rFmFgvP6-4" value="Ticket Information Retreiver&amp;nbsp; (Expert)" style="rounded=1;whiteSpace=wrap;html=1;absoluteArcSize=1;arcSize=14;strokeWidth=2;" vertex="1" parent="1">
          <mxGeometry x="937.5" y="640" width="100" height="60" as="geometry" />
        </mxCell>
        <mxCell id="4g47qL0nQ_y-rFmFgvP6-5" style="edgeStyle=orthogonalEdgeStyle;rounded=0;orthogonalLoop=1;jettySize=auto;html=1;exitX=0.5;exitY=1;exitDx=0;exitDy=0;exitPerimeter=0;entryX=0;entryY=0.5;entryDx=0;entryDy=0;" edge="1" parent="1" source="4g47qL0nQ_y-rFmFgvP6-6" target="4g47qL0nQ_y-rFmFgvP6-4">
          <mxGeometry relative="1" as="geometry" />
        </mxCell>
        <mxCell id="4g47qL0nQ_y-rFmFgvP6-6" value="&lt;br&gt;Tickets DB" style="strokeWidth=2;html=1;shape=mxgraph.flowchart.database;whiteSpace=wrap;" vertex="1" parent="1">
          <mxGeometry x="550" y="550" width="60" height="60" as="geometry" />
        </mxCell>
        <mxCell id="4g47qL0nQ_y-rFmFgvP6-7" value="Notification" style="rounded=1;whiteSpace=wrap;html=1;absoluteArcSize=1;arcSize=14;strokeWidth=2;" vertex="1" parent="1">
          <mxGeometry x="1097.5" y="320" width="100" height="60" as="geometry" />
        </mxCell>
        <mxCell id="4g47qL0nQ_y-rFmFgvP6-8" style="edgeStyle=orthogonalEdgeStyle;rounded=0;orthogonalLoop=1;jettySize=auto;html=1;exitX=1;exitY=0.5;exitDx=0;exitDy=0;entryX=0;entryY=0.5;entryDx=0;entryDy=0;" edge="1" parent="1" source="4g47qL0nQ_y-rFmFgvP6-10" target="4g47qL0nQ_y-rFmFgvP6-40">
          <mxGeometry relative="1" as="geometry">
            <mxPoint x="690" y="480" as="targetPoint" />
            <Array as="points">
              <mxPoint x="660" y="480" />
              <mxPoint x="660" y="350" />
            </Array>
          </mxGeometry>
        </mxCell>
        <mxCell id="4g47qL0nQ_y-rFmFgvP6-9" style="edgeStyle=orthogonalEdgeStyle;rounded=0;orthogonalLoop=1;jettySize=auto;html=1;exitX=0;exitY=0.75;exitDx=0;exitDy=0;entryX=0.25;entryY=0;entryDx=0;entryDy=0;" edge="1" parent="1" source="4g47qL0nQ_y-rFmFgvP6-10">
          <mxGeometry relative="1" as="geometry">
            <Array as="points">
              <mxPoint x="510" y="495" />
              <mxPoint x="510" y="600" />
              <mxPoint x="435" y="600" />
            </Array>
            <mxPoint x="550" y="495" as="sourcePoint" />
            <mxPoint x="435" y="700" as="targetPoint" />
          </mxGeometry>
        </mxCell>
        <mxCell id="4g47qL0nQ_y-rFmFgvP6-10" value="Ticket Management Service" style="rounded=1;whiteSpace=wrap;html=1;absoluteArcSize=1;arcSize=14;strokeWidth=2;" vertex="1" parent="1">
          <mxGeometry x="530" y="450" width="100" height="60" as="geometry" />
        </mxCell>
        <mxCell id="4g47qL0nQ_y-rFmFgvP6-11" style="edgeStyle=orthogonalEdgeStyle;rounded=0;orthogonalLoop=1;jettySize=auto;html=1;exitX=1;exitY=0.5;exitDx=0;exitDy=0;exitPerimeter=0;" edge="1" parent="1" source="4g47qL0nQ_y-rFmFgvP6-12">
          <mxGeometry relative="1" as="geometry">
            <mxPoint x="315" y="419.9411764705883" as="targetPoint" />
          </mxGeometry>
        </mxCell>
        <mxCell id="4g47qL0nQ_y-rFmFgvP6-12" value="Expert marks ticket as &quot;complete&quot;" style="strokeWidth=2;html=1;shape=mxgraph.flowchart.document2;whiteSpace=wrap;size=0.25;" vertex="1" parent="1">
          <mxGeometry x="125" y="390" width="120" height="60" as="geometry" />
        </mxCell>
        <mxCell id="4g47qL0nQ_y-rFmFgvP6-13" style="edgeStyle=orthogonalEdgeStyle;rounded=0;orthogonalLoop=1;jettySize=auto;html=1;entryX=0;entryY=0.5;entryDx=0;entryDy=0;" edge="1" parent="1" source="4g47qL0nQ_y-rFmFgvP6-15" target="4g47qL0nQ_y-rFmFgvP6-10">
          <mxGeometry relative="1" as="geometry" />
        </mxCell>
        <mxCell id="4g47qL0nQ_y-rFmFgvP6-14" value="" style="edgeStyle=orthogonalEdgeStyle;rounded=0;orthogonalLoop=1;jettySize=auto;html=1;strokeWidth=1;" edge="1" parent="1" source="4g47qL0nQ_y-rFmFgvP6-15" target="4g47qL0nQ_y-rFmFgvP6-10">
          <mxGeometry relative="1" as="geometry" />
        </mxCell>
        <mxCell id="4g47qL0nQ_y-rFmFgvP6-15" value="" style="strokeWidth=1;html=1;shape=mxgraph.flowchart.annotation_2;align=left;labelPosition=right;pointerEvents=1;rotation=-180;" vertex="1" parent="1">
          <mxGeometry x="410" y="420" width="60" height="120" as="geometry" />
        </mxCell>
        <mxCell id="4g47qL0nQ_y-rFmFgvP6-16" style="edgeStyle=orthogonalEdgeStyle;rounded=0;orthogonalLoop=1;jettySize=auto;html=1;exitX=0.75;exitY=0;exitDx=0;exitDy=0;entryX=1;entryY=0.25;entryDx=0;entryDy=0;" edge="1" parent="1" source="4g47qL0nQ_y-rFmFgvP6-17" target="4g47qL0nQ_y-rFmFgvP6-46">
          <mxGeometry relative="1" as="geometry">
            <Array as="points">
              <mxPoint x="1172.5" y="590" />
              <mxPoint x="1327.5" y="590" />
              <mxPoint x="1327.5" y="165" />
            </Array>
          </mxGeometry>
        </mxCell>
        <mxCell id="4g47qL0nQ_y-rFmFgvP6-17" value="Knowledge Base Service" style="rounded=1;whiteSpace=wrap;html=1;absoluteArcSize=1;arcSize=14;strokeWidth=2;" vertex="1" parent="1">
          <mxGeometry x="1097.5" y="640" width="100" height="60" as="geometry" />
        </mxCell>
        <mxCell id="4g47qL0nQ_y-rFmFgvP6-18" value="&lt;br&gt;KB DB" style="strokeWidth=2;html=1;shape=mxgraph.flowchart.database;whiteSpace=wrap;" vertex="1" parent="1">
          <mxGeometry x="1112.5" y="740" width="60" height="60" as="geometry" />
        </mxCell>
        <mxCell id="4g47qL0nQ_y-rFmFgvP6-19" value="" style="group" connectable="0" vertex="1" parent="1">
          <mxGeometry x="1137.5" y="700" width="10" height="40.00000000000006" as="geometry" />
        </mxCell>
        <mxCell id="4g47qL0nQ_y-rFmFgvP6-20" style="edgeStyle=orthogonalEdgeStyle;rounded=0;orthogonalLoop=1;jettySize=auto;html=1;exitX=0;exitY=0.15;exitDx=0;exitDy=0;exitPerimeter=0;" edge="1" parent="4g47qL0nQ_y-rFmFgvP6-19">
          <mxGeometry relative="1" as="geometry">
            <mxPoint y="1.0000000000000568" as="targetPoint" />
            <mxPoint y="40" as="sourcePoint" />
          </mxGeometry>
        </mxCell>
        <mxCell id="4g47qL0nQ_y-rFmFgvP6-21" style="edgeStyle=orthogonalEdgeStyle;rounded=0;orthogonalLoop=1;jettySize=auto;html=1;exitX=0;exitY=0.15;exitDx=0;exitDy=0;exitPerimeter=0;" edge="1" parent="4g47qL0nQ_y-rFmFgvP6-19">
          <mxGeometry relative="1" as="geometry">
            <mxPoint x="10" y="40.00000000000006" as="targetPoint" />
            <mxPoint x="10" as="sourcePoint" />
          </mxGeometry>
        </mxCell>
        <mxCell id="4g47qL0nQ_y-rFmFgvP6-22" style="edgeStyle=orthogonalEdgeStyle;rounded=0;orthogonalLoop=1;jettySize=auto;html=1;exitX=1;exitY=0.25;exitDx=0;exitDy=0;entryX=0;entryY=0.25;entryDx=0;entryDy=0;" edge="1" parent="1" source="4g47qL0nQ_y-rFmFgvP6-23" target="4g47qL0nQ_y-rFmFgvP6-29">
          <mxGeometry relative="1" as="geometry" />
        </mxCell>
        <mxCell id="4g47qL0nQ_y-rFmFgvP6-23" value="Customer Management Service" style="rounded=1;whiteSpace=wrap;html=1;absoluteArcSize=1;arcSize=14;strokeWidth=2;" vertex="1" parent="1">
          <mxGeometry x="390" y="700" width="100" height="60" as="geometry" />
        </mxCell>
        <mxCell id="4g47qL0nQ_y-rFmFgvP6-24" value="&lt;br&gt;Customer DB" style="strokeWidth=2;html=1;shape=mxgraph.flowchart.database;whiteSpace=wrap;" vertex="1" parent="1">
          <mxGeometry x="410" y="790" width="60" height="60" as="geometry" />
        </mxCell>
        <mxCell id="4g47qL0nQ_y-rFmFgvP6-25" value="" style="group" connectable="0" vertex="1" parent="1">
          <mxGeometry x="435" y="760" width="10" height="30" as="geometry" />
        </mxCell>
        <mxCell id="4g47qL0nQ_y-rFmFgvP6-26" style="edgeStyle=orthogonalEdgeStyle;rounded=0;orthogonalLoop=1;jettySize=auto;html=1;exitX=0;exitY=0.15;exitDx=0;exitDy=0;exitPerimeter=0;" edge="1" parent="4g47qL0nQ_y-rFmFgvP6-25">
          <mxGeometry relative="1" as="geometry">
            <mxPoint y="0.7500000000000415" as="targetPoint" />
            <mxPoint y="29.999999999999957" as="sourcePoint" />
          </mxGeometry>
        </mxCell>
        <mxCell id="4g47qL0nQ_y-rFmFgvP6-27" style="edgeStyle=orthogonalEdgeStyle;rounded=0;orthogonalLoop=1;jettySize=auto;html=1;exitX=0;exitY=0.15;exitDx=0;exitDy=0;exitPerimeter=0;" edge="1" parent="4g47qL0nQ_y-rFmFgvP6-25">
          <mxGeometry relative="1" as="geometry">
            <mxPoint x="10" y="29.999999999999996" as="targetPoint" />
            <mxPoint x="10" as="sourcePoint" />
          </mxGeometry>
        </mxCell>
        <mxCell id="4g47qL0nQ_y-rFmFgvP6-28" value="Billing &amp;amp; Subscription Service" style="rounded=1;whiteSpace=wrap;html=1;absoluteArcSize=1;arcSize=14;strokeWidth=2;" vertex="1" parent="1">
          <mxGeometry x="530" y="820" width="100" height="60" as="geometry" />
        </mxCell>
        <mxCell id="4g47qL0nQ_y-rFmFgvP6-29" value="Customer Payment History" style="rounded=1;whiteSpace=wrap;html=1;absoluteArcSize=1;arcSize=14;strokeWidth=2;" vertex="1" parent="1">
          <mxGeometry x="720" y="700" width="100" height="60" as="geometry" />
        </mxCell>
        <mxCell id="4g47qL0nQ_y-rFmFgvP6-30" value="&lt;br&gt;Billing History DB" style="strokeWidth=2;html=1;shape=mxgraph.flowchart.database;whiteSpace=wrap;" vertex="1" parent="1">
          <mxGeometry x="740" y="790" width="60" height="60" as="geometry" />
        </mxCell>
        <mxCell id="4g47qL0nQ_y-rFmFgvP6-31" value="" style="group" connectable="0" vertex="1" parent="1">
          <mxGeometry x="765" y="760" width="10" height="30" as="geometry" />
        </mxCell>
        <mxCell id="4g47qL0nQ_y-rFmFgvP6-32" style="edgeStyle=orthogonalEdgeStyle;rounded=0;orthogonalLoop=1;jettySize=auto;html=1;exitX=0;exitY=0.15;exitDx=0;exitDy=0;exitPerimeter=0;" edge="1" parent="4g47qL0nQ_y-rFmFgvP6-31">
          <mxGeometry relative="1" as="geometry">
            <mxPoint y="0.7500000000000415" as="targetPoint" />
            <mxPoint y="29.999999999999957" as="sourcePoint" />
          </mxGeometry>
        </mxCell>
        <mxCell id="4g47qL0nQ_y-rFmFgvP6-33" style="edgeStyle=orthogonalEdgeStyle;rounded=0;orthogonalLoop=1;jettySize=auto;html=1;exitX=0;exitY=0.15;exitDx=0;exitDy=0;exitPerimeter=0;" edge="1" parent="4g47qL0nQ_y-rFmFgvP6-31">
          <mxGeometry relative="1" as="geometry">
            <mxPoint x="10" y="29.999999999999996" as="targetPoint" />
            <mxPoint x="10" as="sourcePoint" />
          </mxGeometry>
        </mxCell>
        <mxCell id="4g47qL0nQ_y-rFmFgvP6-34" value="" style="endArrow=classic;startArrow=classic;html=1;rounded=0;entryX=0.5;entryY=1;entryDx=0;entryDy=0;" edge="1" parent="1" source="4g47qL0nQ_y-rFmFgvP6-45" target="4g47qL0nQ_y-rFmFgvP6-28">
          <mxGeometry width="50" height="50" relative="1" as="geometry">
            <mxPoint x="245" y="840" as="sourcePoint" />
            <mxPoint x="360" y="750" as="targetPoint" />
          </mxGeometry>
        </mxCell>
        <mxCell id="4g47qL0nQ_y-rFmFgvP6-35" style="edgeStyle=orthogonalEdgeStyle;rounded=0;orthogonalLoop=1;jettySize=auto;html=1;exitX=1;exitY=0.75;exitDx=0;exitDy=0;entryX=0.5;entryY=0;entryDx=0;entryDy=0;" edge="1" parent="1" source="4g47qL0nQ_y-rFmFgvP6-23" target="4g47qL0nQ_y-rFmFgvP6-28">
          <mxGeometry relative="1" as="geometry">
            <Array as="points">
              <mxPoint x="580" y="745" />
            </Array>
          </mxGeometry>
        </mxCell>
        <mxCell id="4g47qL0nQ_y-rFmFgvP6-36" style="edgeStyle=orthogonalEdgeStyle;rounded=0;orthogonalLoop=1;jettySize=auto;html=1;exitX=0.5;exitY=0;exitDx=0;exitDy=0;strokeColor=#000000;" edge="1" parent="1" source="4g47qL0nQ_y-rFmFgvP6-37" target="4g47qL0nQ_y-rFmFgvP6-7">
          <mxGeometry relative="1" as="geometry" />
        </mxCell>
        <mxCell id="4g47qL0nQ_y-rFmFgvP6-37" value="Customer Survey Service" style="rounded=1;whiteSpace=wrap;html=1;absoluteArcSize=1;arcSize=14;strokeWidth=2;" vertex="1" parent="1">
          <mxGeometry x="957.5" y="420" width="100" height="60" as="geometry" />
        </mxCell>
        <mxCell id="4g47qL0nQ_y-rFmFgvP6-38" style="edgeStyle=orthogonalEdgeStyle;rounded=0;orthogonalLoop=1;jettySize=auto;html=1;exitX=1;exitY=0.5;exitDx=0;exitDy=0;entryX=0;entryY=0.5;entryDx=0;entryDy=0;" edge="1" parent="1" source="4g47qL0nQ_y-rFmFgvP6-40" target="4g47qL0nQ_y-rFmFgvP6-7">
          <mxGeometry relative="1" as="geometry" />
        </mxCell>
        <mxCell id="4g47qL0nQ_y-rFmFgvP6-39" style="edgeStyle=orthogonalEdgeStyle;rounded=0;orthogonalLoop=1;jettySize=auto;html=1;exitX=0.5;exitY=1;exitDx=0;exitDy=0;entryX=0;entryY=0.5;entryDx=0;entryDy=0;" edge="1" parent="1" source="4g47qL0nQ_y-rFmFgvP6-40" target="4g47qL0nQ_y-rFmFgvP6-37">
          <mxGeometry relative="1" as="geometry" />
        </mxCell>
        <mxCell id="4g47qL0nQ_y-rFmFgvP6-40" value="Assignment &amp;amp; Routing Service" style="rounded=1;whiteSpace=wrap;html=1;absoluteArcSize=1;arcSize=14;strokeWidth=2;" vertex="1" parent="1">
          <mxGeometry x="800" y="320" width="100" height="60" as="geometry" />
        </mxCell>
        <mxCell id="4g47qL0nQ_y-rFmFgvP6-41" value="&lt;br&gt;Experts DB" style="strokeWidth=2;html=1;shape=mxgraph.flowchart.database;whiteSpace=wrap;" vertex="1" parent="1">
          <mxGeometry x="820" y="220" width="60" height="60" as="geometry" />
        </mxCell>
        <mxCell id="4g47qL0nQ_y-rFmFgvP6-42" value="" style="group" connectable="0" vertex="1" parent="1">
          <mxGeometry x="845" y="280" width="10" height="40.00000000000006" as="geometry" />
        </mxCell>
        <mxCell id="4g47qL0nQ_y-rFmFgvP6-43" style="edgeStyle=orthogonalEdgeStyle;rounded=0;orthogonalLoop=1;jettySize=auto;html=1;exitX=0;exitY=0.15;exitDx=0;exitDy=0;exitPerimeter=0;" edge="1" parent="4g47qL0nQ_y-rFmFgvP6-42">
          <mxGeometry relative="1" as="geometry">
            <mxPoint y="1.0000000000000568" as="targetPoint" />
            <mxPoint y="40" as="sourcePoint" />
          </mxGeometry>
        </mxCell>
        <mxCell id="4g47qL0nQ_y-rFmFgvP6-44" style="edgeStyle=orthogonalEdgeStyle;rounded=0;orthogonalLoop=1;jettySize=auto;html=1;exitX=0;exitY=0.15;exitDx=0;exitDy=0;exitPerimeter=0;" edge="1" parent="4g47qL0nQ_y-rFmFgvP6-42">
          <mxGeometry relative="1" as="geometry">
            <mxPoint x="10" y="40.00000000000006" as="targetPoint" />
            <mxPoint x="10" as="sourcePoint" />
          </mxGeometry>
        </mxCell>
        <mxCell id="4g47qL0nQ_y-rFmFgvP6-45" value="&lt;b&gt;BANK&lt;/b&gt;" style="rounded=1;whiteSpace=wrap;html=1;absoluteArcSize=1;arcSize=14;strokeWidth=2;" vertex="1" parent="1">
          <mxGeometry x="530" y="940" width="100" height="60" as="geometry" />
        </mxCell>
        <mxCell id="4g47qL0nQ_y-rFmFgvP6-46" value="&lt;b&gt;EXPERT-FACING MOBILE APP&lt;/b&gt;" style="rounded=1;whiteSpace=wrap;html=1;absoluteArcSize=1;arcSize=14;strokeWidth=2;" vertex="1" parent="1">
          <mxGeometry x="1082.5" y="150" width="100" height="60" as="geometry" />
        </mxCell>
        <mxCell id="4g47qL0nQ_y-rFmFgvP6-47" value="" style="group" connectable="0" vertex="1" parent="1">
          <mxGeometry x="575" y="510" width="10" height="40" as="geometry" />
        </mxCell>
        <mxCell id="4g47qL0nQ_y-rFmFgvP6-48" style="edgeStyle=orthogonalEdgeStyle;rounded=0;orthogonalLoop=1;jettySize=auto;html=1;exitX=0;exitY=0.15;exitDx=0;exitDy=0;exitPerimeter=0;" edge="1" parent="4g47qL0nQ_y-rFmFgvP6-47">
          <mxGeometry relative="1" as="geometry">
            <mxPoint y="1.0000000000000553" as="targetPoint" />
            <mxPoint y="39.99999999999994" as="sourcePoint" />
          </mxGeometry>
        </mxCell>
        <mxCell id="4g47qL0nQ_y-rFmFgvP6-49" style="edgeStyle=orthogonalEdgeStyle;rounded=0;orthogonalLoop=1;jettySize=auto;html=1;exitX=0;exitY=0.15;exitDx=0;exitDy=0;exitPerimeter=0;" edge="1" parent="4g47qL0nQ_y-rFmFgvP6-47">
          <mxGeometry relative="1" as="geometry">
            <mxPoint x="10" y="39.99999999999999" as="targetPoint" />
            <mxPoint x="10" as="sourcePoint" />
          </mxGeometry>
        </mxCell>
        <mxCell id="4g47qL0nQ_y-rFmFgvP6-50" value="Expert Management Service" style="rounded=1;whiteSpace=wrap;html=1;absoluteArcSize=1;arcSize=14;strokeWidth=2;" vertex="1" parent="1">
          <mxGeometry x="800" y="120" width="100" height="60" as="geometry" />
        </mxCell>
        <mxCell id="4g47qL0nQ_y-rFmFgvP6-51" value="" style="group" connectable="0" vertex="1" parent="1">
          <mxGeometry x="845" y="180" width="10" height="40.00000000000006" as="geometry" />
        </mxCell>
        <mxCell id="4g47qL0nQ_y-rFmFgvP6-52" style="edgeStyle=orthogonalEdgeStyle;rounded=0;orthogonalLoop=1;jettySize=auto;html=1;exitX=0;exitY=0.15;exitDx=0;exitDy=0;exitPerimeter=0;" edge="1" parent="4g47qL0nQ_y-rFmFgvP6-51">
          <mxGeometry relative="1" as="geometry">
            <mxPoint y="1.0000000000000568" as="targetPoint" />
            <mxPoint y="40" as="sourcePoint" />
          </mxGeometry>
        </mxCell>
        <mxCell id="4g47qL0nQ_y-rFmFgvP6-53" style="edgeStyle=orthogonalEdgeStyle;rounded=0;orthogonalLoop=1;jettySize=auto;html=1;exitX=0;exitY=0.15;exitDx=0;exitDy=0;exitPerimeter=0;" edge="1" parent="4g47qL0nQ_y-rFmFgvP6-51">
          <mxGeometry relative="1" as="geometry">
            <mxPoint x="10" y="40.00000000000006" as="targetPoint" />
            <mxPoint x="10" as="sourcePoint" />
          </mxGeometry>
        </mxCell>
        <mxCell id="4g47qL0nQ_y-rFmFgvP6-54" value="Send text to expert" style="text;html=1;align=center;verticalAlign=middle;resizable=0;points=[];autosize=1;strokeColor=none;fillColor=none;" vertex="1" parent="1">
          <mxGeometry x="937.5" y="300" width="120" height="30" as="geometry" />
        </mxCell>
        <mxCell id="4g47qL0nQ_y-rFmFgvP6-55" value="Send text/email to customer" style="text;html=1;align=center;verticalAlign=middle;resizable=0;points=[];autosize=1;strokeColor=none;fillColor=none;" vertex="1" parent="1">
          <mxGeometry x="912.5" y="320" width="170" height="30" as="geometry" />
        </mxCell>
        <mxCell id="4g47qL0nQ_y-rFmFgvP6-56" value="Send&amp;nbsp;" style="text;html=1;align=center;verticalAlign=middle;resizable=0;points=[];autosize=1;strokeColor=none;fillColor=none;" vertex="1" parent="1">
          <mxGeometry x="1070" y="400" width="50" height="30" as="geometry" />
        </mxCell>
        <mxCell id="4g47qL0nQ_y-rFmFgvP6-57" value="" style="endArrow=none;html=1;rounded=0;" edge="1" parent="1">
          <mxGeometry width="50" height="50" relative="1" as="geometry">
            <mxPoint x="180" y="1120" as="sourcePoint" />
            <mxPoint x="180" y="1120" as="targetPoint" />
          </mxGeometry>
        </mxCell>
        <mxCell id="4g47qL0nQ_y-rFmFgvP6-58" value="Customer Management Service" style="swimlane;whiteSpace=wrap;html=1;" vertex="1" parent="1">
          <mxGeometry x="290" y="870" width="200" height="110" as="geometry" />
        </mxCell>
        <mxCell id="4g47qL0nQ_y-rFmFgvP6-59" value="Customer Profile&lt;br&gt;Customer Login" style="text;html=1;align=center;verticalAlign=middle;resizable=0;points=[];autosize=1;strokeColor=none;fillColor=none;" vertex="1" parent="4g47qL0nQ_y-rFmFgvP6-58">
          <mxGeometry x="40" y="40" width="110" height="40" as="geometry" />
        </mxCell>
        <mxCell id="4g47qL0nQ_y-rFmFgvP6-60" value="Expert Management Service" style="swimlane;whiteSpace=wrap;html=1;" vertex="1" parent="1">
          <mxGeometry x="585" y="95" width="200" height="110" as="geometry" />
        </mxCell>
        <mxCell id="4g47qL0nQ_y-rFmFgvP6-61" value="Admin Login&lt;br&gt;User Maintenance&lt;br&gt;Expert Profile" style="text;html=1;align=center;verticalAlign=middle;resizable=0;points=[];autosize=1;strokeColor=none;fillColor=none;" vertex="1" parent="4g47qL0nQ_y-rFmFgvP6-60">
          <mxGeometry x="40" y="40" width="120" height="60" as="geometry" />
        </mxCell>
        <mxCell id="4g47qL0nQ_y-rFmFgvP6-62" value="" style="group" connectable="0" vertex="1" parent="1">
          <mxGeometry x="640" y="990" width="200" height="130" as="geometry" />
        </mxCell>
        <mxCell id="4g47qL0nQ_y-rFmFgvP6-63" value="Billing &amp;amp; Subscription Service" style="swimlane;whiteSpace=wrap;html=1;startSize=23;" vertex="1" parent="4g47qL0nQ_y-rFmFgvP6-62">
          <mxGeometry width="200" height="130" as="geometry" />
        </mxCell>
        <mxCell id="4g47qL0nQ_y-rFmFgvP6-64" value="Customer Billing" style="text;html=1;align=center;verticalAlign=middle;resizable=0;points=[];autosize=1;strokeColor=none;fillColor=none;" vertex="1" parent="4g47qL0nQ_y-rFmFgvP6-63">
          <mxGeometry x="45" y="60" width="110" height="30" as="geometry" />
        </mxCell>
        <mxCell id="4g47qL0nQ_y-rFmFgvP6-65" value="Knowledge Based" style="swimlane;whiteSpace=wrap;html=1;startSize=23;" vertex="1" parent="1">
          <mxGeometry x="1100" y="850" width="200" height="140" as="geometry" />
        </mxCell>
        <mxCell id="4g47qL0nQ_y-rFmFgvP6-66" value="Search KB&lt;br&gt;Retrieve KB&lt;br&gt;Add KB" style="text;html=1;align=center;verticalAlign=middle;resizable=0;points=[];autosize=1;strokeColor=none;fillColor=none;" vertex="1" parent="4g47qL0nQ_y-rFmFgvP6-65">
          <mxGeometry x="55" y="50" width="90" height="60" as="geometry" />
        </mxCell>
        <mxCell id="4g47qL0nQ_y-rFmFgvP6-67" value="Ticket Management Service" style="swimlane;whiteSpace=wrap;html=1;" vertex="1" parent="1">
          <mxGeometry x="645" y="490" width="200" height="130" as="geometry" />
        </mxCell>
        <mxCell id="4g47qL0nQ_y-rFmFgvP6-68" value="Ticket Creation&lt;br&gt;Ticket Assignment&lt;br&gt;Ticket Routing&lt;br&gt;Ticket Complettion" style="text;html=1;align=center;verticalAlign=middle;resizable=0;points=[];autosize=1;strokeColor=none;fillColor=none;" vertex="1" parent="4g47qL0nQ_y-rFmFgvP6-67">
          <mxGeometry x="40" y="40" width="120" height="70" as="geometry" />
        </mxCell>
        <mxCell id="4g47qL0nQ_y-rFmFgvP6-69" value="Customer Survey" style="swimlane;whiteSpace=wrap;html=1;startSize=23;" vertex="1" parent="1">
          <mxGeometry x="855" y="760" width="200" height="130" as="geometry" />
        </mxCell>
        <mxCell id="4g47qL0nQ_y-rFmFgvP6-70" value="Customer Survey" style="text;html=1;align=center;verticalAlign=middle;resizable=0;points=[];autosize=1;strokeColor=none;fillColor=none;" vertex="1" parent="4g47qL0nQ_y-rFmFgvP6-69">
          <mxGeometry x="40" y="60" width="120" height="30" as="geometry" />
        </mxCell>
        <mxCell id="4g47qL0nQ_y-rFmFgvP6-71" value="" style="endArrow=none;dashed=1;html=1;rounded=0;exitX=0.417;exitY=-0.017;exitDx=0;exitDy=0;exitPerimeter=0;entryX=0.5;entryY=0;entryDx=0;entryDy=0;" edge="1" parent="1" source="4g47qL0nQ_y-rFmFgvP6-12" target="4g47qL0nQ_y-rFmFgvP6-46">
          <mxGeometry width="50" height="50" relative="1" as="geometry">
            <mxPoint x="270" y="350" as="sourcePoint" />
            <mxPoint x="320" y="300" as="targetPoint" />
            <Array as="points">
              <mxPoint x="180" y="40" />
              <mxPoint x="260" y="40" />
              <mxPoint x="550" y="40" />
              <mxPoint x="1133" y="40" />
            </Array>
          </mxGeometry>
        </mxCell>
        <mxCell id="4g47qL0nQ_y-rFmFgvP6-72" value="" style="endArrow=none;dashed=1;html=1;rounded=0;entryX=0.01;entryY=0.617;entryDx=0;entryDy=0;entryPerimeter=0;exitX=0.488;exitY=0.905;exitDx=0;exitDy=0;exitPerimeter=0;" edge="1" parent="1" source="4g47qL0nQ_y-rFmFgvP6-2">
          <mxGeometry width="50" height="50" relative="1" as="geometry">
            <mxPoint x="272" y="550" as="sourcePoint" />
            <mxPoint x="390" y="720.02" as="targetPoint" />
            <Array as="points">
              <mxPoint x="184" y="640" />
              <mxPoint x="260" y="640" />
              <mxPoint x="260" y="720" />
              <mxPoint x="329" y="720" />
            </Array>
          </mxGeometry>
        </mxCell>
        <mxCell id="4g47qL0nQ_y-rFmFgvP6-73" style="edgeStyle=orthogonalEdgeStyle;rounded=0;orthogonalLoop=1;jettySize=auto;html=1;entryX=0;entryY=0.75;entryDx=0;entryDy=0;" edge="1" parent="1">
          <mxGeometry relative="1" as="geometry">
            <mxPoint x="180" y="740" as="sourcePoint" />
            <mxPoint x="390" y="740.48" as="targetPoint" />
            <Array as="points">
              <mxPoint x="180" y="740" />
              <mxPoint x="280" y="740" />
            </Array>
          </mxGeometry>
        </mxCell>
        <mxCell id="4g47qL0nQ_y-rFmFgvP6-74" value="&lt;b&gt;Web App&lt;/b&gt;" style="rounded=1;whiteSpace=wrap;html=1;absoluteArcSize=1;arcSize=14;strokeWidth=2;" vertex="1" parent="1">
          <mxGeometry x="80" y="710" width="100" height="60" as="geometry" />
        </mxCell>
        <mxCell id="4g47qL0nQ_y-rFmFgvP6-75" value="" style="strokeWidth=2;html=1;shape=mxgraph.flowchart.direct_data;whiteSpace=wrap;rotation=-180;" vertex="1" parent="1">
          <mxGeometry x="345" y="415" width="55" height="10" as="geometry" />
        </mxCell>
        <mxCell id="4g47qL0nQ_y-rFmFgvP6-76" value="" style="strokeWidth=2;html=1;shape=mxgraph.flowchart.direct_data;whiteSpace=wrap;rotation=-180;" vertex="1" parent="1">
          <mxGeometry x="345" y="535" width="55" height="10" as="geometry" />
        </mxCell>
        <mxCell id="4g47qL0nQ_y-rFmFgvP6-77" value="&lt;br&gt;User Login DB" style="strokeWidth=2;html=1;shape=mxgraph.flowchart.database;whiteSpace=wrap;" vertex="1" parent="1">
          <mxGeometry x="340" y="190" width="60" height="60" as="geometry" />
        </mxCell>
        <mxCell id="4g47qL0nQ_y-rFmFgvP6-78" value="User Management Service" style="rounded=1;whiteSpace=wrap;html=1;absoluteArcSize=1;arcSize=14;strokeWidth=2;" vertex="1" parent="1">
          <mxGeometry x="440" y="190" width="100" height="60" as="geometry" />
        </mxCell>
        <mxCell id="4g47qL0nQ_y-rFmFgvP6-79" value="" style="group" connectable="0" vertex="1" parent="1">
          <mxGeometry x="400" y="220" width="40" height="10" as="geometry" />
        </mxCell>
        <mxCell id="4g47qL0nQ_y-rFmFgvP6-80" value="" style="endArrow=classic;html=1;rounded=0;" edge="1" parent="4g47qL0nQ_y-rFmFgvP6-79">
          <mxGeometry width="50" height="50" relative="1" as="geometry">
            <mxPoint as="sourcePoint" />
            <mxPoint x="40" as="targetPoint" />
          </mxGeometry>
        </mxCell>
        <mxCell id="4g47qL0nQ_y-rFmFgvP6-81" value="" style="endArrow=classic;html=1;rounded=0;" edge="1" parent="4g47qL0nQ_y-rFmFgvP6-79">
          <mxGeometry width="50" height="50" relative="1" as="geometry">
            <mxPoint x="40" y="10" as="sourcePoint" />
            <mxPoint y="9.5" as="targetPoint" />
          </mxGeometry>
        </mxCell>
      </root>
    </mxGraphModel>
  </diagram>
</mxfile>
